<svg width="32" height="32" viewBox="0 0 32 32" fill="none" xmlns="http://www.w3.org/2000/svg">
<path d="M22.6667 17.5067V22.436H19.8093V17.836C19.8093 16.6813 19.396 15.8933 18.3613 15.8933C17.572 15.8933 17.1013 16.424 16.8947 16.9387C16.82 17.1227 16.8 17.3787 16.8 17.6347V22.436H13.9413C13.9413 22.436 13.98 14.6467 13.9413 13.84H16.8V15.0573L16.7813 15.0853H16.8V15.0587C17.18 14.472 17.8573 13.6373 19.376 13.6373C21.256 13.6373 22.6667 14.8667 22.6667 17.5067ZM10.9507 9.69466C9.97333 9.69466 9.33333 10.3373 9.33333 11.18C9.33333 12.0067 9.95467 12.6667 10.9133 12.6667H10.932C11.9293 12.6667 12.5493 12.0053 12.5493 11.18C12.5307 10.3373 11.9293 9.69466 10.9507 9.69466ZM9.50267 22.436H12.3613V13.84H9.50267V22.436Z" fill="white"/>
<path d="M8 5.33333C7.29276 5.33333 6.61448 5.61428 6.11438 6.11438C5.61428 6.61448 5.33333 7.29275 5.33333 8V24C5.33333 24.7072 5.61428 25.3855 6.11438 25.8856C6.61448 26.3857 7.29276 26.6667 8 26.6667H24C24.7072 26.6667 25.3855 26.3857 25.8856 25.8856C26.3857 25.3855 26.6667 24.7072 26.6667 24V8C26.6667 7.29275 26.3857 6.61448 25.8856 6.11438C25.3855 5.61428 24.7072 5.33333 24 5.33333H8ZM8 2.66666H24C25.4145 2.66666 26.771 3.22857 27.7712 4.22876C28.7714 5.22896 29.3333 6.58551 29.3333 8V24C29.3333 25.4145 28.7714 26.771 27.7712 27.7712C26.771 28.7714 25.4145 29.3333 24 29.3333H8C6.58551 29.3333 5.22896 28.7714 4.22876 27.7712C3.22857 26.771 2.66667 25.4145 2.66667 24V8C2.66667 6.58551 3.22857 5.22896 4.22876 4.22876C5.22896 3.22857 6.58551 2.66666 8 2.66666V2.66666Z" fill="white"/>
</svg>
