<svg width="32" height="32" viewBox="0 0 32 32" fill="none" xmlns="http://www.w3.org/2000/svg">
<path d="M22.6667 11.9293C22.176 12.1427 21.6493 12.2893 21.096 12.3533C21.6613 12.02 22.0933 11.492 22.2987 10.864C21.768 11.172 21.184 11.3973 20.56 11.5173C20.3025 11.2474 19.9927 11.0328 19.6496 10.8866C19.3064 10.7403 18.937 10.6655 18.564 10.6667C17.0533 10.6667 15.8293 11.8733 15.8293 13.36C15.8293 13.5707 15.8533 13.776 15.9 13.9733C14.8164 13.9219 13.7555 13.6451 12.7849 13.1607C11.8142 12.6763 10.9552 11.9949 10.2627 11.16C10.0194 11.5695 9.89135 12.0371 9.892 12.5133C9.892 13.4467 10.376 14.2733 11.1093 14.7547C10.6753 14.7411 10.2505 14.6255 9.86933 14.4173V14.4507C9.87345 15.0766 10.0944 15.6818 10.4946 16.1631C10.8947 16.6445 11.4493 16.9723 12.064 17.0907C11.6605 17.1974 11.2383 17.2129 10.828 17.136C11.0068 17.6745 11.3489 18.1439 11.8067 18.4792C12.2645 18.8144 12.8153 18.9988 13.3827 19.0067C12.4093 19.7567 11.2142 20.162 9.98533 20.1587C9.76533 20.1587 9.548 20.1453 9.33333 20.1213C10.5873 20.9151 12.0413 21.3354 13.5253 21.3333C18.5573 21.3333 21.308 17.2293 21.308 13.6693L21.2987 13.32C21.8351 12.943 22.2986 12.4719 22.6667 11.9293Z" fill="white"/>
<path d="M8 5.33333C7.29276 5.33333 6.61448 5.61428 6.11438 6.11438C5.61429 6.61448 5.33333 7.29275 5.33333 8V24C5.33333 24.7072 5.61429 25.3855 6.11438 25.8856C6.61448 26.3857 7.29276 26.6667 8 26.6667H24C24.7072 26.6667 25.3855 26.3857 25.8856 25.8856C26.3857 25.3855 26.6667 24.7072 26.6667 24V8C26.6667 7.29275 26.3857 6.61448 25.8856 6.11438C25.3855 5.61428 24.7072 5.33333 24 5.33333H8ZM8 2.66666H24C25.4145 2.66666 26.771 3.22857 27.7712 4.22876C28.7714 5.22896 29.3333 6.58551 29.3333 8V24C29.3333 25.4145 28.7714 26.771 27.7712 27.7712C26.771 28.7714 25.4145 29.3333 24 29.3333H8C6.58551 29.3333 5.22896 28.7714 4.22877 27.7712C3.22857 26.771 2.66667 25.4145 2.66667 24V8C2.66667 6.58551 3.22857 5.22896 4.22877 4.22876C5.22896 3.22857 6.58551 2.66666 8 2.66666V2.66666Z" fill="white"/>
</svg>
